<?xml version="1.0"?><svg viewBox="0 0 416.78 634.29" xmlns="http://www.w3.org/2000/svg" xmlns:xlink="http://www.w3.org/1999/xlink"><style>:root>svg{display:none}:root>svg:target{display:block}</style><svg viewBox="0 0 210 297" id="2cv" xmlns="http://www.w3.org/2000/svg"><defs><linearGradient id="aa" y2="468.76" gradientUnits="userSpaceOnUse" x2="-767.19" y1="478.06" x1="-575.96"><stop stop-color="#003664" offset="0"/><stop stop-color="#003664" stop-opacity="0" offset="1"/></linearGradient><linearGradient id="ab" y2="495.69" gradientUnits="userSpaceOnUse" x2="380.71" gradientTransform="translate(-2.857 -5.714)" y1="372.83" x1="62.868"><stop stop-color="#283567" offset="0"/><stop stop-color="#283567" stop-opacity="0" offset="1"/></linearGradient><radialGradient id="ac" gradientUnits="userSpaceOnUse" cy="14.505" cx="-715.71" gradientTransform="matrix(1 0 0 .5 0 7.253)" r="41.429"><stop stop-color="#143a99" offset="0"/><stop stop-color="#143a99" stop-opacity="0" offset="1"/></radialGradient></defs><g stroke-width="0"><path d="M478.498 325.69c-4.45.031-21.184-2.091-29.724-.847-38.943 5.674-111.532 2.426-131.967 34.276l-38.96 60.738c-8.962 13.972-7.463 9.74-28.991 17.164-67.138 11.171-128.62 13.472-190.48 62.015C47.34 544.56 56.42 544.536 46 572.484l34.245-1.225c-.596-1.818.33-4.47 1.725-7.328a47.063 47.063 0 01-1.385-7.733l-2.692-.009c-1.432-38.21 48.288-64.398 82.722-45.069 17.56 8.667 29.41 26.699 29.12 45.452l-.64-.003a46.61 46.61 0 01-.79 5.067l.508-.04c.867 7.984 18.094.962 26.159 2.437l-12.365-3.657 22.49-2c101.875-5.44 193.64-5.205 295.516-10.645-14.09-34.28 20.726-73.31 58.906-67.774 35.22.03 69.23 36.585 68.365 59.267l31.828-.76-25.549-53.856-50.997-85.086c-27.43-45.76-67.957-74.224-124.666-73.824z" fill="#369"/><path d="M84.268 570.93a46.854 46.854 0 01-2.005-5.37l-2.154 5.747 4.16-.378z" fill="#0197fd"/><path d="M82.262 565.564l2.932-7.805c-1.102 2.057-2.358 4.223-3.366 6.278.137.513.28 1.02.434 1.527zM87.234 553.42c.367-1.001.6-1.923.603-2.7l-1.022 2.718.419-.019z" fill="#0197fd"/><path d="M135.526 509.423c-24.123-.083-43.757 20.033-43.844 44.92-.087 24.885 19.403 45.122 43.528 45.204s43.744-20.02 43.83-44.906-19.39-45.136-43.514-45.218zm-.117 15.33c17.016.058 30.772 13.212 30.716 29.364-.057 16.153-13.904 29.199-30.922 29.14-17.016-.058-30.76-13.198-30.703-29.35s13.89-29.212 30.909-29.154zM575.518 480.929c-27.078-.093-49.113 22.018-49.209 49.373s21.784 49.602 48.862 49.695c27.078.092 49.1-22.004 49.195-49.36s-21.77-49.615-48.848-49.708zm-.13 16.851c19.1.065 34.541 14.525 34.479 32.28s-15.604 32.096-34.705 32.03-34.528-14.51-34.465-32.266 15.59-32.11 34.69-32.044z" fill="#333"/><path d="M65.202 462.012c18.37.063 33.231 8.767 33.194 19.441-.038 10.674-14.96 19.277-33.33 19.214l.068-19.327z" fill="#369"/><path d="M432.418 339.846c57.715-5.632 105.123 23.247 105.89 64.502a54.773 54.773 0 01-.639 9.37l-103.86.827zM416.688 340.86c-31.671-.958-65.257 7.27-87.44 25.085-18.219 14.235-26.492 34.572-22.3 53.305-.084 2.128-15.364 3.288-13.429 3.558 35.604-1.973 90.418-6.669 126.021-8.64l-2.854-73.309z" fill="#fff"/><path d="M342.97 354.691c-.022 6.252-6.18 11.298-13.754 11.272-7.574-.026-13.696-5.114-13.674-11.365s6.18-11.298 13.754-11.272c7.574.026 13.696 5.114 13.674 11.365zM588.394 372.353c-4.94 8.788-19.037 9.877-31.485 2.432s-18.534-20.606-13.593-29.394c4.94-8.789 19.037-9.877 31.485-2.432s18.534 20.605 13.593 29.394zM506.49 544.103c-2.942-49.606 25.934-92.635 64.498-96.109s72.21 33.924 75.152 83.53c.06 1.015.107 2.032.14 3.05l-69.965 3.239z" fill="#369"/><path d="M-645.71 446.65c0 39.449-35.817 71.429-80 71.429s-80-31.98-80-71.429c0-.808.015-1.615.046-2.423l79.954 2.423z" transform="matrix(-.87281 .07862 -.07458 -1.25746 -23.782 1156.515)" fill="url(#aa)"/><path d="M217.84 568.94c-11.633-29.91-18.327-60.4-43.08-72.764-24.416-12.798-55.894-9.805-77.497 7.39-18.826 14.41-46.922 52.125-29.062 67.711 19.302 16.844.813-69.507 71.523-60.945 61.248 7.415 86.705 80.693 78.115 58.608z" fill="#369"/><path d="M221.87 405.17c-12.226-30.16-19.31-60.922-45.14-73.321-25.48-12.838-58.259-9.707-80.699 7.729-19.558 14.615-48.686 52.793-30.025 68.469 20.167 16.941.593-70.184 74.28-61.784 63.827 7.276 90.612 81.177 81.584 58.907z" fill="url(#ab)" transform="matrix(.95999 .00328 -.00348 .99038 3.562 154.53)"/><path d="M-674.29-6.21c0 22.88-18.548 41.43-41.429 41.43-22.88 0-41.429-18.548-41.429-41.43h41.429z" transform="matrix(.00164 -.46652 .80287 .00275 71.29 147.46)" fill="url(#ac)"/></g></svg><svg viewBox="0 0 116.21 162.9" id="Sale" xmlns="http://www.w3.org/2000/svg"><defs><filter id="ba" width="1.968" y="-1.021" x="-.484" height="3.042" color-interpolation-filters="sRGB"><feGaussianBlur stdDeviation="50.291"/></filter><filter id="bb" width="1.139" y="-.139" x="-.069" height="1.278" color-interpolation-filters="sRGB"><feGaussianBlur stdDeviation="3.995"/></filter><filter id="be" color-interpolation-filters="sRGB"><feGaussianBlur stdDeviation=".635"/></filter><linearGradient id="bc" y2="366.21" gradientUnits="userSpaceOnUse" y1="367.31" x2="1007.9" x1="969.58"><stop stop-color="#2b1100" offset="0"/><stop stop-color="#d45500" offset="1"/></linearGradient><linearGradient id="bd" y2="253.96" gradientUnits="userSpaceOnUse" y1="207.4" x2="245.97" x1="245.97"><stop stop-color="#0b280b" offset="0"/><stop stop-color="#217821" offset="1"/></linearGradient></defs><g transform="translate(-184.75 -193.768)"><rect ry="20.996" transform="matrix(.23673 0 0 .15745 156.33 205.4)" height="118.19" filter="url(#ba)" width="249.51" y="721.87" x="240.75" fill="#333"/><path filter="url(#bb)" transform="matrix(.13112 0 0 -.08566 170.34 391.1)" fill="#050" d="M644.36 700.56c0 38.05-30.995 68.895-69.228 68.895-38.234 0-69.228-30.846-69.228-68.895"/><path fill="#0b280b" d="M263.88 300.3c.169.004.335.016.5.035-5.303.153-11.578 8.032-14.681 18.894-1.24 4.34-1.802 8.561-1.753 12.264h-3.908c.13-4.239 1.256-9.264 3.409-14.332 4.284-10.087 11.2-16.984 16.433-16.86z"/><g transform="matrix(.23673 0 0 .27486 11.038 157.39)"><rect ry="20.496" height="502.86" width="42.857" y="132.36" x="968.57" fill="url(#bc)"/><g opacity=".1"><path fill="#d45500" d="M1007.88 363.756c0 70.563-2.695 127.765-6.019 127.765s-6.019-57.202-6.019-127.765 2.695-127.765 6.02-127.765 6.018 57.202 6.018 127.765z"/><path fill="#f60" d="M1006.549 363.753c0 60.036-2.098 108.705-4.687 108.705s-4.686-48.669-4.686-108.705 2.098-108.705 4.686-108.705 4.687 48.668 4.687 108.705z"/><path fill="#520" d="M1005.685 363.752c0 48.932-1.71 88.6-3.82 88.6s-3.82-39.668-3.82-88.6 1.71-88.599 3.82-88.599 3.82 39.667 3.82 88.6z"/><path fill="#ffb380" d="M1004.759 363.753c0 37.07-1.296 67.12-2.894 67.12s-2.894-30.05-2.894-67.12 1.296-67.12 2.894-67.12 2.894 30.05 2.894 67.12z"/></g><g opacity=".1"><path fill="#d45500" d="M982.71 498.355c0 70.563-2.695 127.765-6.019 127.765s-6.019-57.202-6.019-127.765 2.695-127.765 6.02-127.765 6.018 57.202 6.018 127.765z"/><path fill="#f60" d="M981.379 498.352c0 60.036-2.098 108.705-4.687 108.705s-4.686-48.669-4.686-108.705 2.098-108.705 4.686-108.705 4.687 48.668 4.687 108.705z"/><path fill="#520" d="M980.515 498.351c0 48.932-1.71 88.6-3.82 88.6s-3.82-39.668-3.82-88.6 1.71-88.599 3.82-88.599 3.82 39.667 3.82 88.6z"/><path fill="#ffb380" d="M979.589 498.352c0 37.07-1.296 67.12-2.894 67.12s-2.894-30.05-2.894-67.12 1.296-67.12 2.894-67.12 2.894 30.05 2.894 67.12z"/></g><g opacity=".1"><path fill="#d45500" d="M991.47 264.175c0 70.563-2.695 127.765-6.019 127.765s-6.019-57.202-6.019-127.765 2.695-127.765 6.02-127.765 6.018 57.202 6.018 127.765z"/><path fill="#f60" d="M990.139 264.172c0 60.036-2.098 108.705-4.687 108.705s-4.686-48.669-4.686-108.705 2.098-108.705 4.686-108.705 4.687 48.668 4.687 108.705z"/><path fill="#520" d="M989.275 264.171c0 48.932-1.71 88.6-3.82 88.6s-3.82-39.668-3.82-88.6 1.71-88.599 3.82-88.599 3.82 39.667 3.82 88.6z"/><path fill="#ffb380" d="M988.349 264.172c0 37.07-1.296 67.12-2.894 67.12s-2.894-30.05-2.894-67.12 1.296-67.12 2.894-67.12 2.894 30.05 2.894 67.12z"/></g><g opacity=".1"><path fill="#d45500" d="M1007.88 542.676c0 38.227-2.695 69.217-6.019 69.217s-6.019-30.99-6.019-69.217 2.695-69.217 6.02-69.217 6.018 30.99 6.018 69.217z"/><path fill="#f60" d="M1006.549 542.674c0 32.525-2.098 58.891-4.687 58.891s-4.686-26.366-4.686-58.891 2.098-58.891 4.686-58.891 4.687 26.366 4.687 58.891z"/><path fill="#520" d="M1005.685 542.674c0 26.509-1.71 47.999-3.82 47.999s-3.82-21.49-3.82-48 1.71-47.998 3.82-47.998 3.82 21.49 3.82 47.999z"/><path fill="#ffb380" d="M1004.759 542.674c0 20.083-1.296 36.363-2.894 36.363s-2.894-16.28-2.894-36.363 1.296-36.363 2.894-36.363 2.894 16.28 2.894 36.363z"/></g></g><rect ry="4.142" height="47.347" width="95.214" y="206.2" x="199.69" fill="url(#bd)"/><path fill="#0b280b" d="M222.8 298.88a5.576 5.576 0 00-.5.035c5.303.153 11.578 8.032 14.681 18.894 1.24 4.34 1.802 8.561 1.753 12.264h3.908c-.13-4.239-1.256-9.264-3.409-14.332-4.284-10.087-11.2-16.984-16.433-16.86z"/><path d="M222.96 310.23c-.169.003-.335.01-.5.023 5.303.101 11.578 5.314 14.681 12.5 1.24 2.87 1.802 5.663 1.753 8.112h3.908c-.13-2.804-1.256-6.128-3.409-9.481-4.284-6.673-11.2-11.235-16.433-11.154z" fill="#050"/><path fill="#002b00" d="M228.63 311.65c-.169.003-.335.01-.5.023 5.303.101 11.578 5.313 14.681 12.5 1.24 2.87 1.802 5.663 1.753 8.112h3.908c-.13-2.804-1.256-6.128-3.409-9.481-4.284-6.673-11.2-11.235-16.433-11.154z"/><path d="M268.45 299.83c.169.004.335.016.5.035-5.303.153-11.578 8.032-14.681 18.894-1.24 4.34-1.802 8.561-1.753 12.264h-3.908c.13-4.239 1.256-9.264 3.409-14.332 4.284-10.087 11.2-16.984 16.433-16.86z" fill="#050"/><path d="M267.19 314.64c.169.002.335.009.5.02-5.303.088-11.578 4.624-14.681 10.876-1.24 2.498-1.802 4.928-1.753 7.06h-3.908c.13-2.44 1.256-5.333 3.409-8.25 4.284-5.807 11.2-9.778 16.433-9.707z" fill="green"/><path fill="#165016" d="M225.32 314.17a8.934 8.934 0 00-.5.02c5.303.088 11.578 4.624 14.681 10.876 1.24 2.498 1.802 4.928 1.753 7.06h3.908c-.13-2.44-1.256-5.333-3.409-8.25-4.284-5.807-11.2-9.777-16.433-9.706z"/><path d="M234.6 327.09c-.056 0-.112.003-.167.005 1.77.024 3.865 1.256 4.9 2.955.414.678.601 1.338.585 1.917h1.304c-.043-.662-.419-1.448-1.137-2.24-1.43-1.578-3.739-2.657-5.485-2.637z" fill="#1f241c"/><path fill="green" d="M249.25 327.25c.056 0 .112.003.167.005-1.77.024-3.865 1.256-4.9 2.955-.414.678-.601 1.338-.585 1.917h-1.304c.043-.663.419-1.448 1.137-2.24 1.43-1.578 3.739-2.657 5.485-2.638z"/><path filter="url(#bb)" transform="matrix(.13112 0 0 .08566 170.34 270.85)" fill="#050" d="M644.36 700.56c0 38.05-30.995 68.895-69.228 68.895-38.234 0-69.228-30.846-69.228-68.895"/><g transform="translate(162.55 147.13) scale(.23673)"><path fill="#b3b3b3" d="M337.492 259.088a3.547 3.547 0 11-7.094 0 3.547 3.547 0 017.094 0z"/><rect ry=".203" height="5.763" width=".457" y="256.14" x="333.71" fill="#fff"/><rect transform="rotate(90)" ry=".203" height="5.763" width=".457" y="-336.82" x="258.79" fill="#fff"/></g><g transform="translate(170.41 147) scale(.23673)"><path fill="#b3b3b3" d="M337.492 259.088a3.547 3.547 0 11-7.094 0 3.547 3.547 0 017.094 0z"/><rect ry=".203" height="5.763" width=".457" y="256.14" x="333.71" fill="#fff"/><rect ry=".203" transform="rotate(90)" height="5.763" width=".457" y="-336.82" x="258.79" fill="#fff"/></g><g transform="translate(162.44 188.93) scale(.23673)"><path fill="#b3b3b3" d="M337.492 259.088a3.547 3.547 0 11-7.094 0 3.547 3.547 0 017.094 0z"/><rect ry=".203" height="5.763" width=".457" y="256.14" x="333.71" fill="#fff"/><rect transform="rotate(90)" ry=".203" height="5.763" width=".457" y="-336.82" x="258.79" fill="#fff"/></g><g transform="translate(170.23 188.75) scale(.23673)"><path fill="#b3b3b3" d="M337.492 259.088a3.547 3.547 0 11-7.094 0 3.547 3.547 0 017.094 0z"/><rect ry=".203" height="5.763" width=".457" y="256.14" x="333.71" fill="#fff"/><rect ry=".203" transform="rotate(90)" height="5.763" width=".457" y="-336.82" x="258.79" fill="#fff"/></g><g filter="url(#be)" transform="matrix(1.0293 0 0 .97151 .51 .518)"><path d="M219.29 223.62c.067-.056.256-.306.567-.75.2-.29.467-.434.8-.434.079 0 .39.039.935.116.111.112.195.345.25.701l.901 5.655c.044.3.067.478.067.534 0 .211-.059.35-.175.417-.117.066-.426.1-.926.1-.567 0-.934-.072-1.101-.217-.167-.145-.484-.745-.951-1.802-.99-2.235-1.874-3.353-2.652-3.353-.556 0-.834.39-.834 1.168 0 .968.84 2.87 2.518 5.705 1.924 3.27 3.178 5.635 3.762 7.098.584 1.462.876 3.1.876 4.912 0 2.147-.506 3.793-1.518 4.938s-2.152 1.718-3.42 1.718c-.8 0-1.573-.228-2.319-.684-.289-.178-.517-.267-.683-.267-.145 0-.262.106-.35.317-.179.423-.612.634-1.302.634-.267 0-.447-.042-.542-.125-.095-.083-.164-.303-.209-.659l-.834-5.555a27.214 27.214 0 01-.166-1.134c0-.322.294-.484.884-.484.8 0 1.273.106 1.418.317.144.212.35.695.617 1.451.978 2.703 1.963 4.054 2.952 4.054.367 0 .665-.133.893-.4.228-.267.342-.6.342-1.001 0-.7-.253-1.532-.76-2.494a51.683 51.683 0 00-1.86-3.211c-1.756-2.825-2.999-5.08-3.727-6.764-.729-1.685-1.093-3.406-1.093-5.163 0-1.98.434-3.559 1.301-4.737.868-1.18 1.93-1.769 3.186-1.769.868 0 1.918.39 3.153 1.168zM232.27 244.07h-4.17l-.184 1.535a.528.528 0 01-.033.15 3.298 3.298 0 00-.134.867c0 .4.262.74.784 1.018.278.144.45.294.518.45.066.156.1.411.1.767 0 .456-.025.732-.075.826-.05.095-.17.142-.36.142h-4.403c-.245 0-.367-.256-.367-.767 0-.612.195-1.107.584-1.485.367-.345.578-.712.634-1.101l3.086-19.634c.055-.3.083-.562.083-.784 0-.345-.239-.65-.717-.918-.222-.133-.334-.428-.334-.884 0-.611.034-.99.1-1.134.067-.144.245-.217.534-.217h6.372c.39 0 .662.184.818.55.155.368.311 1.168.467 2.403.066.478.133.95.2 1.418l2.736 18.332c.133.89.461 1.568.984 2.035.144.122.239.22.283.292.045.072.067.292.067.659 0 .567-.039.914-.117 1.042-.078.128-.244.192-.5.192h-7.423c-.223 0-.334-.211-.334-.634 0-.534.028-.867.084-1 .055-.134.217-.29.483-.468.39-.244.584-.556.584-.934 0-.39-.117-1.296-.35-2.719zm-2.002-14.879l-1.851 12.961h3.67zM248.22 247.94h.95c.49 0 .852-.195 1.085-.584.234-.39.54-1.29.918-2.702.133-.545.294-.876.483-.993.19-.116.512-.175.968-.175.5 0 .823.042.967.125.145.084.217.237.217.459 0 .156-.028.406-.083.75l-.584 3.987c-.067.412-.153.684-.259.818-.105.133-.32.2-.642.2h-10.976c-.467 0-.7-.29-.7-.867 0-.445.03-.732.091-.86.061-.127.192-.225.392-.291.634-.2.951-.784.951-1.752v-19.817c0-.411-.2-.706-.6-.884-.345-.145-.556-.306-.634-.484-.078-.178-.117-.472-.117-.884 0-.49.033-.792.1-.909.067-.117.245-.175.534-.175h7.69c.289 0 .486.07.592.208.106.14.158.515.158 1.126 0 .367-.036.615-.108.743-.072.128-.259.242-.559.342-.556.189-.834.556-.834 1.1zM262.16 224.95v9.525h1.134c.312 0 .54-.067.684-.2.145-.134.256-.423.334-.868.133-.79.242-1.262.325-1.418a.415.415 0 01.392-.233c.879 0 1.376.036 1.493.108.117.072.175.353.175.843v5.554c0 .345-.055.57-.167.676-.11.106-.455.158-1.034.158-.378 0-.63-.07-.759-.208-.128-.14-.253-.531-.375-1.176-.122-.59-.242-.95-.359-1.084-.116-.134-.297-.2-.542-.2h-1.3v11.492h.883c.545 0 .92-.152 1.126-.458.206-.306.537-1.187.993-2.644.189-.612.383-1.012.584-1.201.2-.19.55-.284 1.05-.284.69 0 1.035.223 1.035.667 0 .134-.023.329-.067.584l-.617 3.787c-.111.69-.203 1.104-.276 1.243-.072.139-.297.208-.675.208H255.07c-.278 0-.456-.064-.534-.192-.078-.128-.117-.497-.117-1.109 0-.39.2-.673.6-.85.612-.257.918-.607.918-1.052v-20.8c-.01-.212-.261-.423-.75-.635-.334-.144-.531-.283-.593-.417-.06-.133-.091-.455-.091-.967 0-.434.033-.692.1-.776.067-.083.261-.125.584-.125h10.642c.267 0 .461.045.584.134.122.089.216.3.283.634l.85 4.303c.045.223.068.373.068.45 0 .3-.267.451-.801.451-.6 0-1.001-.07-1.201-.209-.2-.138-.395-.486-.584-1.042-.345-1-.642-1.696-.892-2.085-.25-.39-.531-.584-.843-.584z"/></g><g fill="#dee3db"><path d="M226.225 217.767c.069-.054.263-.297.584-.729a.972.972 0 01.824-.421c.08 0 .4.038.962.113.114.108.2.335.257.68l.927 5.495c.046.291.069.464.069.518 0 .206-.06.34-.18.405s-.438.098-.953.098c-.584 0-.962-.07-1.133-.211-.172-.14-.498-.724-.98-1.75-1.018-2.172-1.928-3.258-2.73-3.258-.571 0-.858.379-.858 1.135 0 .94.865 2.787 2.593 5.542 1.98 3.177 3.27 5.475 3.872 6.896.6 1.42.901 3.011.901 4.772 0 2.086-.52 3.685-1.562 4.797s-2.215 1.67-3.52 1.67c-.824 0-1.62-.222-2.387-.665-.297-.173-.532-.26-.704-.26-.148 0-.269.103-.36.309-.183.41-.63.615-1.34.615-.274 0-.46-.04-.557-.121-.098-.081-.17-.294-.215-.64l-.859-5.397a25.048 25.048 0 01-.171-1.102c0-.313.303-.47.91-.47.824 0 1.31.103 1.46.308.148.205.36.675.634 1.41 1.008 2.625 2.02 3.938 3.04 3.938.377 0 .683-.13.918-.389.235-.26.352-.583.352-.972 0-.68-.26-1.488-.781-2.423a49.59 49.59 0 00-1.915-3.12c-1.808-2.744-3.087-4.934-3.837-6.571-.75-1.637-1.125-3.309-1.125-5.016 0-1.923.447-3.457 1.34-4.602.892-1.145 1.985-1.718 3.279-1.718.893 0 1.975.378 3.245 1.134zM239.586 237.635h-4.293l-.189 1.49a.488.488 0 01-.034.147 3.038 3.038 0 00-.137.842c0 .39.269.719.806.989.287.14.464.286.533.437.068.152.103.4.103.746 0 .443-.026.71-.078.802-.051.092-.174.138-.369.138h-4.533c-.251 0-.377-.249-.377-.746 0-.594.2-1.075.6-1.442.378-.335.596-.691.653-1.07l3.177-19.074a4.03 4.03 0 00.085-.762c0-.335-.246-.632-.738-.891-.229-.13-.343-.416-.343-.86 0-.593.034-.96.103-1.101.068-.14.252-.21.55-.21h6.558c.4 0 .681.177.841.534.16.357.32 1.134.481 2.334.069.464.137.923.206 1.377l2.816 17.81c.137.864.475 1.523 1.013 1.977.149.119.246.213.292.284.046.07.068.283.068.64 0 .55-.04.888-.12 1.013-.08.124-.252.186-.515.186h-7.64c-.23 0-.344-.205-.344-.616 0-.518.029-.843.086-.972.057-.13.223-.281.498-.454.4-.238.601-.54.601-.908 0-.378-.12-1.258-.36-2.641zm-2.06-14.455l-1.907 12.591h3.778zM256.003 241.395h.979c.503 0 .875-.19 1.116-.568.24-.378.555-1.253.944-2.625.137-.53.303-.85.498-.964.194-.114.526-.17.996-.17.515 0 .847.04.996.121.148.081.223.23.223.446 0 .151-.029.394-.086.73l-.601 3.872c-.069.4-.157.665-.266.794-.109.13-.33.195-.661.195h-11.298c-.48 0-.72-.281-.72-.843 0-.432.03-.71.093-.834.063-.125.198-.22.404-.284.652-.194.979-.762.979-1.702v-19.252c0-.4-.206-.686-.618-.859-.355-.14-.573-.297-.653-.47-.08-.173-.12-.459-.12-.859 0-.475.034-.77.103-.883.069-.113.252-.17.55-.17h7.915c.297 0 .5.067.61.202.108.135.162.5.162 1.094 0 .357-.037.597-.111.721-.075.125-.267.235-.576.333-.572.183-.858.54-.858 1.07zM270.351 219.06v9.253h1.168c.32 0 .555-.065.704-.194.149-.13.263-.411.343-.843.138-.767.25-1.226.335-1.378a.431.431 0 01.403-.227c.905 0 1.417.036 1.537.106.12.07.18.343.18.818v5.397c0 .335-.057.553-.171.656-.115.103-.47.154-1.065.154-.389 0-.65-.068-.78-.203-.133-.135-.261-.515-.387-1.142-.126-.573-.25-.924-.37-1.053-.12-.13-.306-.195-.557-.195h-1.34v11.166h.91c.561 0 .948-.149 1.16-.446.211-.297.552-1.153 1.021-2.569.195-.594.395-.983.6-1.166.207-.184.567-.276 1.083-.276.71 0 1.064.216 1.064.648 0 .13-.023.32-.069.568l-.635 3.678c-.114.67-.209 1.073-.283 1.208-.075.135-.306.202-.696.202h-11.452c-.286 0-.469-.062-.549-.186-.08-.124-.12-.484-.12-1.078 0-.378.206-.654.618-.826.63-.249.944-.59.944-1.021v-20.209c-.011-.205-.269-.41-.772-.616-.344-.14-.547-.275-.61-.405-.063-.13-.094-.443-.094-.94 0-.421.034-.672.103-.753.068-.081.269-.122.6-.122h10.955c.274 0 .475.043.6.13.126.086.224.292.292.616l.876 4.18c.046.217.069.363.069.438 0 .292-.275.438-.824.438-.619 0-1.03-.068-1.237-.203-.206-.135-.406-.472-.6-1.013-.355-.972-.662-1.647-.92-2.025-.257-.378-.546-.567-.866-.567z"/></g><rect ry="3.814" height="33.418" width="80.706" stroke="green" y="213.6" x="207.09" stroke-width=".941" fill="none"/></g></svg><svg viewBox="0 0 416.78 634.29" version="1.0" id="drunken_duck_Beer_2" xmlns="http://www.w3.org/2000/svg"><g fill-rule="evenodd"><path stroke="#000" stroke-width="5.342867999999999" fill="#ffffd5" d="M232.31 224.201c-27.274.42-34.343 35.71-16.238 52.57 13.567 19.56 39.16 12.202 57.94 6.386 20.88-6.63 51.965-13.401 64.026 11.15 19.953 39.51 15.53 89.76-6.832 127.362-11.78 25.514-43.032 20.714-62.6 8.163-17.447-7.944-41.866-25.909-58.797-7.542-22.51 21.862-15.433 63.23 11.903 77.866 25.69 17.72 58.553 40.15 90.575 24.971 29.508-16.641 42.375-50.687 54.856-80.335 20.417-57.59 30.998-123.438 8.461-181.99-11.614-31.305-45.712-47.08-77.541-45.95-22.142-.34-43.943 4.126-65.753 7.35z"/><path fill="#c8c994" d="M344.327 293.615c-4.923-12.91-20.286-33.546-14.908-43.365 22.002 24.665 38.521 56.45 37.348 90.303-.692 34.037-5.58 69.852-23.316 99.448-6.114 10.773-41.788 28.877-23.553 4.169 19.541-23.07 38.355-49.198 39.67-80.651 1.987-24.183-4.275-48.445-15.241-69.904z"/></g><path stroke-width="6.9036861599999995" stroke="#000" fill-rule="evenodd" d="M37.883 166.627c80.554 5.939 162.51 19.524 242.741 3.985 14.364-4.169 28.729-11.482 23.123 9.723-1.226 130.944-3.153 262.186 7.62 392.823-13.663 18.411-42.655 14.356-63.676 17.614-62.275 2.225-125.68-.236-185.976-16.878-26.854-3.206-38.24-26.592-29.5-50.985 9.89-118.42 11.904-237.609 5.668-356.282z"/><path fill="#f4b133" d="M281.325 554.949C235.69 583.958 49.47 562.55 48.253 528.716c-.762-59 1.48-250.52 11.763-308.16-17.561-47.28 137.312-6.036 226.564-19.673-37.312 57.86 17.342 231.96-5.255 354.066z"/><path d="M289.908 171.917c-3.854.036-8.934 1.63-15.24 4.354-78.04 14.95-157.799 1.883-236.181-3.828 6.079 114.136 4.108 228.762-5.5 342.653-8.584 23.649 2.802 46.036 28.71 49.05 58.702 16.01 120.39 18.375 180.914 16.238 20.408-3.153 48.524.806 61.925-16.948-10.336-123.84-8.584-248.268-7.445-372.416 2.802-13.646.175-19.173-7.183-19.103zM86.853 208.573c.412.009.85.044 1.288.105 10.37 10.844 11.912 30.27 14.942 46.343 5.597 40.43 6.517 81.86 5.746 122.974-1.56 49.408-4.204 99.832-16.86 146.902-1.674 15.205-16.993 32.469-23.124 11.693-11.255-32.732-12.306-69.843-14.102-105.36-1.48-61.898.648-124.742 12.508-185.108 3.898-13.13 6.665-37.838 19.602-37.549zm74.993 6.84c.42 0 .85.027 1.287.08 10.546 10.641 12.473 30.06 15.801 46.07 6.394 40.318 8.058 81.738 8.058 122.87-.613 49.416-2.277 99.876-14.101 147.173-1.402 15.232-16.37 32.758-22.896 12.096-11.86-32.512-13.61-69.553-16.063-105.027-2.646-61.854-1.7-124.751 9.03-185.327 3.652-13.2 5.956-37.978 18.884-37.934zm72.444 2.602c.438-.009.788.035 1.226.079 10.774 10.484 12.963 29.832 16.554 45.79 6.92 40.23 9.197 81.615 9.81 122.738.175 49.426-.788 99.894-11.824 147.367-1.139 15.249-15.941 33.038-22.773 12.481-12.35-32.337-14.627-69.378-17.605-104.808-3.591-61.81-3.504-124.708 6.306-185.441 3.416-13.252 5.343-38.057 18.306-38.206z" fill-rule="evenodd" stroke="#000" stroke-width="6.678585" fill="#f4ca33"/><path fill="#f4e382" d="M78.585 372.748c-.92 29.377-2.216 59.367-7.007 87.527-.692 9.056-6.193 19.55-8.198 7.305-3.705-19.27-3.802-41.29-4.17-62.354-.061-36.744 1.148-74.126 5.755-110.169 1.515-8.119 2.689-23.5 7.594-22.588 3.52 6.096 3.932 17.403 4.878 26.714 1.673 23.552 1.708 47.788 1.183 71.857M156.827 379.781c-.359 29.386-1.095 59.394-5.36 87.64-.526 9.066-5.825 19.664-8.058 7.455-4.064-19.19-4.572-41.202-5.334-62.258-.762-36.743-.246-74.134 3.687-110.264 1.358-8.137 2.242-23.544 7.165-22.72 3.626 6.025 4.256 17.324 5.378 26.617 2.11 23.509 2.61 47.753 2.53 71.814M231.838 382.479c.087 29.386-.263 59.402-4.03 87.71-.437 9.075-5.605 19.752-7.97 7.577-4.38-19.13-5.168-41.131-6.306-62.179-1.314-36.725-1.314-74.125 2.102-110.3 1.226-8.162 1.84-23.578 6.832-22.825 3.678 5.974 4.467 17.264 5.78 26.53 2.453 23.483 3.241 47.71 3.592 71.78"/><g><path stroke="#000" stroke-width="3.31345404" d="M197.687 41.02c-9.635.131-18.92 4.966-25.839 12.726-9.634 3.127-18.13 10.756-23.035 20.881a35.977 35.977 0 00-2.365 3.994v.035a29.537 29.537 0 00-8.934.903c-3.679-3.513-7.795-6.272-12.35-7.97-16.73-7.104-35.648 2.898-43.97 20.118-2.364 3.591-4.116 7.62-5.342 11.938-13.05.307-25.663 9.24-31.97 22.414-3.328 5.054-5.605 10.949-6.569 17.351-3.503 17.062 3.329 35.473 15.153 45.905-.35 1.174-.525 2.347-.7 3.556-4.906 23.71 10.072 50.04 30.918 53.92 2.452 2.084 5.255 3.844 8.233 5.202.613 1.007 1.226 1.988 1.927 2.934.088.28.263.56.35.841 4.467 13.436 19.27 22.256 33.284 20.207 3.679-.368 7.27-1.507 10.598-3.232.438.052.964.114 1.489.14 10.335 1.182 20.058-3.477 27.415-11.334 13.313.184 25.488-9.17 31.97-22.282 1.05-1.726 2.102-3.53 2.978-5.422 1.839.464 3.678.753 5.518.85 13.05 1.497 25.225-6.246 32.582-18.035 3.416-3.433 6.394-7.594 8.672-12.21 4.38-6.683 7.094-14.732 7.532-23.158.526.053.964.114 1.49.14 6.744.77 13.225-.928 18.918-4.38 13.226.01 25.226-9.319 31.62-22.308 5.255-8.128 8.145-18.253 7.445-28.632v-.762c-.701-17.886-11.475-34.773-26.277-40.317-9.284-3.933-19.182-2.62-27.678 2.242-.175 0-.438.018-.613.026-4.029-4.414-8.846-7.865-14.101-9.853a29.218 29.218 0 00-11.387-2.295c-3.153-14.522-12.788-27.179-25.225-31.838a28.755 28.755 0 00-11.737-2.295z"/><path fill="#fff" d="M195.935 47.116c-9.634.131-18.919 4.975-25.75 12.727-9.635 3.126-18.219 10.755-23.124 20.88-.876 1.288-1.577 2.61-2.277 4.003-.088.009-.088.018-.088.027-2.978-.158-6.043.166-8.934.902-3.59-3.521-7.795-6.272-12.262-7.97-16.73-7.095-35.648 2.916-44.057 20.118a45.616 45.616 0 00-5.343 11.938c-13.05.307-25.575 9.25-31.97 22.388-3.328 5.062-5.605 10.957-6.568 17.377-3.504 17.071 3.328 35.5 15.152 45.931-.262 1.165-.525 2.357-.7 3.557-4.905 23.718 10.072 50.012 30.918 53.901 2.453 2.094 5.255 3.828 8.321 5.194a22.7 22.7 0 001.84 2.934c.087.272.262.543.35.815 4.467 13.453 19.27 22.282 33.283 20.233 3.679-.368 7.27-1.507 10.598-3.232.526.052.964.114 1.49.14 10.335 1.182 20.145-3.477 27.414-11.334 13.314.193 25.4-9.162 31.882-22.256 1.139-1.726 2.19-3.547 3.066-5.448 1.84.464 3.679.78 5.518.876 13.05 1.498 25.225-6.271 32.583-18.06 3.416-3.434 6.394-7.595 8.67-12.21 4.38-6.684 7.096-14.724 7.534-23.159.525.053.963.114 1.488.14 6.745.771 13.226-.928 18.92-4.38 13.313.01 25.312-9.389 31.706-22.44 5.168-8.11 8.146-18.182 7.445-28.5l-.087-.762c-.701-17.886-11.474-34.764-26.277-40.317-9.284-3.933-19.181-2.619-27.677 2.242-.176.009-.438.018-.614.026-4.029-4.423-8.846-7.865-14.101-9.853a29.218 29.218 0 00-11.387-2.295c-3.153-14.522-12.788-27.179-25.225-31.838a28.9 28.9 0 00-11.737-2.295z"/><g stroke="#000"><path stroke-width="1.28579184" d="M117.535 207.55c-4.292 0-8.496.868-12.437 2.655-12.788 5.229-20.934 20.154-17.343 33.721.438 1.953 1.139 3.837 1.927 5.606-.263-.859-.525-1.752-.7-2.654-3.592-13.559 4.466-28.484 17.342-33.721 13.926-6.35 32.057-.868 39.59 12.595.525.788.876 1.603 1.313 2.435-.7-1.875-1.488-3.688-2.452-5.396-5.43-9.67-16.379-15.24-27.24-15.24z"/><path stroke-width="1.4872442399999999" d="M153.271 91.068c-4.905 0-9.81.972-14.364 3.039-14.89 6.052-24.262 23.342-20.146 39.03.526 2.224 1.314 4.352 2.19 6.376a275.32 275.32 0 01-.788-2.952c-4.117-15.687 5.255-32.96 20.057-39.012 16.117-7.34 37.138-1.007 45.897 14.566.525.893.963 1.822 1.401 2.768-.7-2.155-1.664-4.23-2.803-6.193-6.306-11.185-18.831-17.622-31.444-17.622zM146.44 139.434c-4.906 0-9.81.998-14.365 3.065-14.803 6.053-24.175 23.316-20.058 39.003.438 2.216 1.226 4.336 2.19 6.35-.35-.963-.613-1.935-.876-2.934-4.117-15.678 5.255-32.95 20.145-39.003 10.51-4.817 23.211-3.775 33.108 1.918.263-.7.438-1.392.701-2.084-6.131-4.082-13.488-6.315-20.846-6.315z"/><path stroke-width="1.4872442399999999" d="M197.415 127.066c-4.905 0-9.81.973-14.364 3.04-14.89 6.052-24.262 23.316-20.145 39.003.525 2.25 1.314 4.414 2.277 6.455-.35-.981-.613-2.015-.876-3.04-4.116-15.678 5.255-32.95 20.058-39.002 16.116-7.35 37.137-.981 45.896 14.592.525.876.963 1.769 1.401 2.68-.788-2.129-1.664-4.187-2.802-6.131-6.22-11.194-18.832-17.597-31.445-17.597z"/><path stroke-width="1.1377681199999998" d="M182.963 187.406c-3.766 0-7.532.77-11.036 2.356-11.386 4.624-18.48 17.833-15.328 29.832.35 1.708.876 3.346 1.665 4.896-.263-.735-.526-1.497-.614-2.268-3.153-12 3.942-25.208 15.328-29.833 12.35-5.623 28.379-.78 35.036 11.133.438.683.788 1.375 1.138 2.084a41.605 41.605 0 00-2.102-4.712c-4.817-8.557-14.54-13.488-24.087-13.488z"/><path stroke-width="1.4872442399999999" d="M107.9 161.812c-4.992 0-9.897.999-14.364 3.066-14.89 6.052-24.262 23.316-20.145 39.003.525 2.216 1.314 4.336 2.277 6.35-.35-.963-.7-1.927-.876-2.934-4.116-15.678 5.256-32.95 20.058-39.003 4.992-2.277 10.51-3.258 15.94-3.04.526-1.077 1.052-2.119 1.665-3.144a36.15 36.15 0 00-4.555-.298z"/></g></g></svg></svg>